<?xml version="1.0" ?><!DOCTYPE svg  PUBLIC '-//W3C//DTD SVG 1.1//EN'  'http://www.w3.org/Graphics/SVG/1.1/DTD/svg11.dtd'><svg enable-background="new 0 0 500 500" height="500px" id="Layer_1" version="1.1" viewBox="0 0 500 500" width="500px" x="0px" xml:space="preserve" xmlns="http://www.w3.org/2000/svg" xmlns:xlink="http://www.w3.org/1999/xlink" y="0px"><path clip-rule="evenodd" d="M150.061,232.739l-67.232,67.868  c-3.363,3.267-5.453,7.898-5.453,12.991c0,9.991,8.083,18.173,17.989,18.173h127.379V445.34c0,12.536,10.177,22.711,22.713,22.711  c12.537,0,22.715-10.175,22.715-22.711V331.771h136.46c9.899,0,17.992-8.182,17.992-18.173c0-4.993-2.006-9.536-5.269-12.811  l-67.417-68.143V77.375h13.631c12.535,0,22.715-10.177,22.715-22.713c0-12.536-10.18-22.713-22.715-22.713H136.432  c-12.536,0-22.713,10.177-22.713,22.713c0,12.537,10.177,22.713,22.713,22.713h13.629V232.739z M231.83,95.548v118.109  c0,9.996-8.176,18.172-18.172,18.172c-9.994,0-18.171-8.176-18.171-18.172V95.548c0-9.996,8.177-18.173,18.171-18.173  C223.653,77.375,231.83,85.552,231.83,95.548z" fill="#010101" fill-rule="evenodd"/></svg>